<?xml version="1.0" encoding="UTF-8"?>
<svg xmlns="http://www.w3.org/2000/svg" xmlns:xlink="http://www.w3.org/1999/xlink" width="595pt" height="842pt" viewBox="0 0 595 842" version="1.1">
<g id="surface1">
<path style=" stroke:none;fill-rule:nonzero;fill:rgb(0%,0%,100%);fill-opacity:1;" d="M 99 244 L 122 244 L 122 320 L 149 320 L 149 244 L 169 244 L 169 331 L 160 342 L 110 342 L 99 331 "/>
<path style="fill:none;stroke-width:10;stroke-linecap:butt;stroke-linejoin:miter;stroke:rgb(0%,0%,0%);stroke-opacity:1;stroke-miterlimit:10;" d="M 990 5980 L 1220 5980 L 1220 5220 L 1490 5220 L 1490 5980 L 1690 5980 L 1690 5110 L 1600 5000 L 1100 5000 L 990 5110 Z M 990 5980 " transform="matrix(0.1,0,0,-0.1,0,842)"/>
<path style=" stroke:none;fill-rule:nonzero;fill:rgb(0%,0%,100%);fill-opacity:1;" d="M 184 255 L 195 244 L 240 244 L 252 255 L 252 274 L 229 274 L 229 262 L 207 262 L 207 285 L 240 285 L 252 297 L 252 331 L 240 342 L 195 342 L 184 331 L 184 311 L 207 311 L 207 324 L 229 324 L 229 301 L 195 301 L 184 290 "/>
<path style="fill:none;stroke-width:10;stroke-linecap:butt;stroke-linejoin:miter;stroke:rgb(0%,0%,0%);stroke-opacity:1;stroke-miterlimit:10;" d="M 1840 5870 L 1950 5980 L 2400 5980 L 2520 5870 L 2520 5680 L 2290 5680 L 2290 5800 L 2070 5800 L 2070 5570 L 2400 5570 L 2520 5450 L 2520 5110 L 2400 5000 L 1950 5000 L 1840 5110 L 1840 5310 L 2070 5310 L 2070 5180 L 2290 5180 L 2290 5410 L 1950 5410 L 1840 5520 Z M 1840 5870 " transform="matrix(0.1,0,0,-0.1,0,842)"/>
<path style=" stroke:none;fill-rule:nonzero;fill:rgb(0%,0%,100%);fill-opacity:1;" d="M 259 342 L 296 244 L 315 244 L 279 342 Z M 318 246 L 352 342 L 331 342 L 319 307 L 296 307 L 303 287 L 314 287 L 309 272 "/>
<path style="fill:none;stroke-width:10;stroke-linecap:butt;stroke-linejoin:miter;stroke:rgb(0%,0%,0%);stroke-opacity:1;stroke-miterlimit:10;" d="M 2590 5000 L 2960 5980 L 3150 5980 L 2790 5000 Z M 3180 5960 L 3520 5000 L 3310 5000 L 3190 5350 L 2960 5350 L 3030 5550 L 3140 5550 L 3090 5700 Z M 3180 5960 " transform="matrix(0.1,0,0,-0.1,0,842)"/>
<path style=" stroke:none;fill-rule:nonzero;fill:rgb(0%,0%,100%);fill-opacity:1;" d="M 359 342 L 359 244 L 420 244 L 420 266 L 382 266 L 382 282 L 404 282 L 404 300 L 382 300 L 382 342 "/>
<path style="fill:none;stroke-width:10;stroke-linecap:butt;stroke-linejoin:miter;stroke:rgb(0%,0%,0%);stroke-opacity:1;stroke-miterlimit:10;" d="M 3590 5000 L 3590 5980 L 4200 5980 L 4200 5760 L 3820 5760 L 3820 5600 L 4040 5600 L 4040 5420 L 3820 5420 L 3820 5000 Z M 3590 5000 " transform="matrix(0.1,0,0,-0.1,0,842)"/>
<path style=" stroke:none;fill-rule:nonzero;fill:rgb(0%,0%,100%);fill-opacity:1;" d="M 404 342 L 441 244 L 460 244 L 424 342 Z M 463 246 L 497 342 L 476 342 L 464 307 L 441 307 L 448 287 L 459 287 L 454 272 "/>
<path style="fill:none;stroke-width:10;stroke-linecap:butt;stroke-linejoin:miter;stroke:rgb(0%,0%,0%);stroke-opacity:1;stroke-miterlimit:10;" d="M 4040 5000 L 4410 5980 L 4600 5980 L 4240 5000 Z M 4630 5960 L 4970 5000 L 4760 5000 L 4640 5350 L 4410 5350 L 4480 5550 L 4590 5550 L 4540 5700 Z M 4630 5960 " transform="matrix(0.1,0,0,-0.1,0,842)"/>
<path style=" stroke:none;fill-rule:nonzero;fill:rgb(0%,0%,100%);fill-opacity:1;" d="M 99 544 L 122 544 L 122 620 L 149 620 L 149 544 L 169 544 L 169 631 L 160 642 L 110 642 L 99 631 "/>
<path style="fill:none;stroke-width:10;stroke-linecap:butt;stroke-linejoin:miter;stroke:rgb(0%,0%,0%);stroke-opacity:1;stroke-miterlimit:10;" d="M 990 2980 L 1220 2980 L 1220 2220 L 1490 2220 L 1490 2980 L 1690 2980 L 1690 2110 L 1600 2000 L 1100 2000 L 990 2110 Z M 990 2980 " transform="matrix(0.1,0,0,-0.1,0,842)"/>
<path style=" stroke:none;fill-rule:nonzero;fill:rgb(0%,0%,100%);fill-opacity:1;" d="M 184 555 L 195 544 L 240 544 L 252 555 L 252 574 L 229 574 L 229 562 L 207 562 L 207 585 L 240 585 L 252 597 L 252 631 L 240 642 L 195 642 L 184 631 L 184 611 L 207 611 L 207 624 L 229 624 L 229 601 L 195 601 L 184 590 "/>
<path style="fill:none;stroke-width:10;stroke-linecap:butt;stroke-linejoin:miter;stroke:rgb(0%,0%,0%);stroke-opacity:1;stroke-miterlimit:10;" d="M 1840 2870 L 1950 2980 L 2400 2980 L 2520 2870 L 2520 2680 L 2290 2680 L 2290 2800 L 2070 2800 L 2070 2570 L 2400 2570 L 2520 2450 L 2520 2110 L 2400 2000 L 1950 2000 L 1840 2110 L 1840 2310 L 2070 2310 L 2070 2180 L 2290 2180 L 2290 2410 L 1950 2410 L 1840 2520 Z M 1840 2870 " transform="matrix(0.1,0,0,-0.1,0,842)"/>
<path style=" stroke:none;fill-rule:nonzero;fill:rgb(0%,0%,100%);fill-opacity:1;" d="M 353 642 L 316 544 L 297 544 L 333 642 Z M 294 546 L 260 642 L 281 642 L 293 607 L 316 607 L 309 587 L 298 587 L 303 572 "/>
<path style="fill:none;stroke-width:10;stroke-linecap:butt;stroke-linejoin:miter;stroke:rgb(0%,0%,0%);stroke-opacity:1;stroke-miterlimit:10;" d="M 3530 2000 L 3160 2980 L 2970 2980 L 3330 2000 Z M 2940 2960 L 2600 2000 L 2810 2000 L 2930 2350 L 3160 2350 L 3090 2550 L 2980 2550 L 3030 2700 Z M 2940 2960 " transform="matrix(0.1,0,0,-0.1,0,842)"/>
<path style=" stroke:none;fill-rule:nonzero;fill:rgb(0%,0%,100%);fill-opacity:1;" d="M 359 642 L 359 544 L 420 544 L 420 566 L 382 566 L 382 582 L 404 582 L 404 600 L 382 600 L 382 642 "/>
<path style="fill:none;stroke-width:10;stroke-linecap:butt;stroke-linejoin:miter;stroke:rgb(0%,0%,0%);stroke-opacity:1;stroke-miterlimit:10;" d="M 3590 2000 L 3590 2980 L 4200 2980 L 4200 2760 L 3820 2760 L 3820 2600 L 4040 2600 L 4040 2420 L 3820 2420 L 3820 2000 Z M 3590 2000 " transform="matrix(0.1,0,0,-0.1,0,842)"/>
<path style=" stroke:none;fill-rule:nonzero;fill:rgb(0%,0%,100%);fill-opacity:1;" d="M 499 642 L 462 544 L 443 544 L 479 642 Z M 440 546 L 406 642 L 427 642 L 439 607 L 462 607 L 455 587 L 444 587 L 449 572 "/>
<path style="fill:none;stroke-width:10;stroke-linecap:butt;stroke-linejoin:miter;stroke:rgb(0%,0%,0%);stroke-opacity:1;stroke-miterlimit:10;" d="M 4990 2000 L 4620 2980 L 4430 2980 L 4790 2000 Z M 4400 2960 L 4060 2000 L 4270 2000 L 4390 2350 L 4620 2350 L 4550 2550 L 4440 2550 L 4490 2700 Z M 4400 2960 " transform="matrix(0.1,0,0,-0.1,0,842)"/>
</g>
</svg>
