<?xml version="1.0" encoding="UTF-8"?>
<svg xmlns="http://www.w3.org/2000/svg" xmlns:xlink="http://www.w3.org/1999/xlink" width="595pt" height="842pt" viewBox="0 0 595 842" version="1.1">
<g id="surface1">
<path style=" stroke:none;fill-rule:nonzero;fill:rgb(0%,0%,100%);fill-opacity:1;" d="M 99 244 L 122 244 L 122 320 L 149 320 L 149 244 L 169 244 L 169 331 L 160 342 L 110 342 L 99 331 "/>
<path style="fill:none;stroke-width:10;stroke-linecap:butt;stroke-linejoin:miter;stroke:rgb(0%,0%,0%);stroke-opacity:1;stroke-miterlimit:10;" d="M 990 5980 L 1220 5980 L 1220 5220 L 1490 5220 L 1490 5980 L 1690 5980 L 1690 5110 L 1600 5000 L 1100 5000 L 990 5110 Z M 990 5980 " transform="matrix(0.1,0,0,-0.1,0,842)"/>
<path style=" stroke:none;fill-rule:nonzero;fill:rgb(0%,0%,100%);fill-opacity:1;" d="M 184 255 L 195 244 L 240 244 L 252 255 L 252 274 L 229 274 L 229 262 L 207 262 L 207 285 L 240 285 L 252 297 L 252 331 L 240 342 L 195 342 L 184 331 L 184 311 L 207 311 L 207 324 L 229 324 L 229 301 L 195 301 L 184 290 "/>
<path style="fill:none;stroke-width:10;stroke-linecap:butt;stroke-linejoin:miter;stroke:rgb(0%,0%,0%);stroke-opacity:1;stroke-miterlimit:10;" d="M 1840 5870 L 1950 5980 L 2400 5980 L 2520 5870 L 2520 5680 L 2290 5680 L 2290 5800 L 2070 5800 L 2070 5570 L 2400 5570 L 2520 5450 L 2520 5110 L 2400 5000 L 1950 5000 L 1840 5110 L 1840 5310 L 2070 5310 L 2070 5180 L 2290 5180 L 2290 5410 L 1950 5410 L 1840 5520 Z M 1840 5870 " transform="matrix(0.1,0,0,-0.1,0,842)"/>
<path style=" stroke:none;fill-rule:nonzero;fill:rgb(0%,0%,100%);fill-opacity:1;" d="M 259 342 L 296 244 L 315 244 L 279 342 Z M 318 246 L 352 342 L 331 342 L 319 307 L 296 307 L 303 287 L 314 287 L 309 272 "/>
<path style="fill:none;stroke-width:10;stroke-linecap:butt;stroke-linejoin:miter;stroke:rgb(0%,0%,0%);stroke-opacity:1;stroke-miterlimit:10;" d="M 2590 5000 L 2960 5980 L 3150 5980 L 2790 5000 Z M 3180 5960 L 3520 5000 L 3310 5000 L 3190 5350 L 2960 5350 L 3030 5550 L 3140 5550 L 3090 5700 Z M 3180 5960 " transform="matrix(0.1,0,0,-0.1,0,842)"/>
<path style=" stroke:none;fill-rule:nonzero;fill:rgb(0%,0%,100%);fill-opacity:1;" d="M 359 342 L 359 244 L 420 244 L 420 266 L 382 266 L 382 282 L 404 282 L 404 300 L 382 300 L 382 342 "/>
<path style="fill:none;stroke-width:10;stroke-linecap:butt;stroke-linejoin:miter;stroke:rgb(0%,0%,0%);stroke-opacity:1;stroke-miterlimit:10;" d="M 3590 5000 L 3590 5980 L 4200 5980 L 4200 5760 L 3820 5760 L 3820 5600 L 4040 5600 L 4040 5420 L 3820 5420 L 3820 5000 Z M 3590 5000 " transform="matrix(0.1,0,0,-0.1,0,842)"/>
<path style=" stroke:none;fill-rule:nonzero;fill:rgb(0%,0%,100%);fill-opacity:1;" d="M 54 544 L 77 544 L 77 620 L 104 620 L 104 544 L 124 544 L 124 631 L 115 642 L 65 642 L 54 631 "/>
<path style="fill:none;stroke-width:10;stroke-linecap:butt;stroke-linejoin:miter;stroke:rgb(0%,0%,0%);stroke-opacity:1;stroke-miterlimit:10;" d="M 540 2980 L 770 2980 L 770 2220 L 1040 2220 L 1040 2980 L 1240 2980 L 1240 2110 L 1150 2000 L 650 2000 L 540 2110 Z M 540 2980 " transform="matrix(0.1,0,0,-0.1,0,842)"/>
<path style=" stroke:none;fill-rule:nonzero;fill:rgb(0%,0%,100%);fill-opacity:1;" d="M 139 555 L 150 544 L 195 544 L 207 555 L 207 574 L 184 574 L 184 562 L 162 562 L 162 585 L 195 585 L 207 597 L 207 631 L 195 642 L 150 642 L 139 631 L 139 611 L 162 611 L 162 624 L 184 624 L 184 601 L 150 601 L 139 590 "/>
<path style="fill:none;stroke-width:10;stroke-linecap:butt;stroke-linejoin:miter;stroke:rgb(0%,0%,0%);stroke-opacity:1;stroke-miterlimit:10;" d="M 1390 2870 L 1500 2980 L 1950 2980 L 2070 2870 L 2070 2680 L 1840 2680 L 1840 2800 L 1620 2800 L 1620 2570 L 1950 2570 L 2070 2450 L 2070 2110 L 1950 2000 L 1500 2000 L 1390 2110 L 1390 2310 L 1620 2310 L 1620 2180 L 1840 2180 L 1840 2410 L 1500 2410 L 1390 2520 Z M 1390 2870 " transform="matrix(0.1,0,0,-0.1,0,842)"/>
<path style=" stroke:none;fill-rule:nonzero;fill:rgb(0%,0%,100%);fill-opacity:1;" d="M 308 642 L 271 544 L 252 544 L 288 642 Z M 249 546 L 215 642 L 236 642 L 248 607 L 271 607 L 264 587 L 253 587 L 258 572 "/>
<path style="fill:none;stroke-width:10;stroke-linecap:butt;stroke-linejoin:miter;stroke:rgb(0%,0%,0%);stroke-opacity:1;stroke-miterlimit:10;" d="M 3080 2000 L 2710 2980 L 2520 2980 L 2880 2000 Z M 2490 2960 L 2150 2000 L 2360 2000 L 2480 2350 L 2710 2350 L 2640 2550 L 2530 2550 L 2580 2700 Z M 2490 2960 " transform="matrix(0.1,0,0,-0.1,0,842)"/>
<path style=" stroke:none;fill-rule:nonzero;fill:rgb(0%,0%,100%);fill-opacity:1;" d="M 314 642 L 314 544 L 375 544 L 375 566 L 337 566 L 337 582 L 359 582 L 359 600 L 337 600 L 337 642 "/>
<path style="fill:none;stroke-width:10;stroke-linecap:butt;stroke-linejoin:miter;stroke:rgb(0%,0%,0%);stroke-opacity:1;stroke-miterlimit:10;" d="M 3140 2000 L 3140 2980 L 3750 2980 L 3750 2760 L 3370 2760 L 3370 2600 L 3590 2600 L 3590 2420 L 3370 2420 L 3370 2000 Z M 3140 2000 " transform="matrix(0.1,0,0,-0.1,0,842)"/>
</g>
</svg>
