<?xml version="1.0" encoding="UTF-8"?>
<svg xmlns="http://www.w3.org/2000/svg" xmlns:xlink="http://www.w3.org/1999/xlink" width="322.5pt" height="399.5pt" viewBox="0 0 322.5 399.5" version="1.2">
<defs>
<clipPath id="clip1">
  <path d="M 0 0.0585938 L 71 0.0585938 L 71 99 L 0 99 Z M 0 0.0585938 "/>
</clipPath>
<clipPath id="clip2">
  <path d="M 0 0.0585938 L 85 0.0585938 L 85 113 L 0 113 Z M 0 0.0585938 "/>
</clipPath>
<clipPath id="clip3">
  <path d="M 85 0.0585938 L 154 0.0585938 L 154 99 L 85 99 Z M 85 0.0585938 "/>
</clipPath>
<clipPath id="clip4">
  <path d="M 71 0.0585938 L 168 0.0585938 L 168 113 L 71 113 Z M 71 0.0585938 "/>
</clipPath>
<clipPath id="clip5">
  <path d="M 160 0.0585938 L 254 0.0585938 L 254 99 L 160 99 Z M 160 0.0585938 "/>
</clipPath>
<clipPath id="clip6">
  <path d="M 146 0.0585938 L 268 0.0585938 L 268 113 L 146 113 Z M 146 0.0585938 "/>
</clipPath>
<clipPath id="clip7">
  <path d="M 260 0.0585938 L 322 0.0585938 L 322 99 L 260 99 Z M 260 0.0585938 "/>
</clipPath>
<clipPath id="clip8">
  <path d="M 259 0.0585938 L 322 0.0585938 L 322 99 L 259 99 Z M 259 0.0585938 "/>
</clipPath>
<clipPath id="clip9">
  <path d="M 0 285 L 85 285 L 85 398.941406 L 0 398.941406 Z M 0 285 "/>
</clipPath>
<clipPath id="clip10">
  <path d="M 71 285 L 168 285 L 168 398.941406 L 71 398.941406 Z M 71 285 "/>
</clipPath>
<clipPath id="clip11">
  <path d="M 146 285 L 268 285 L 268 398.941406 L 146 398.941406 Z M 146 285 "/>
</clipPath>
<clipPath id="clip12">
  <path d="M 259 299 L 322 299 L 322 398.941406 L 259 398.941406 Z M 259 299 "/>
</clipPath>
</defs>
<g id="surface1">
<g clip-path="url(#clip1)" clip-rule="nonzero">
<path style=" stroke:none;fill-rule:nonzero;fill:rgb(0%,0%,100%);fill-opacity:1;" d="M 0.5 0.558594 L 23.464844 0.558594 L 23.464844 76.441406 L 47.425781 76.441406 L 47.425781 0.558594 L 70.390625 0.558594 L 70.390625 87.425781 L 61.40625 98.40625 L 10.484375 98.40625 L 0.5 88.421875 "/>
</g>
<g clip-path="url(#clip2)" clip-rule="nonzero">
<path style="fill:none;stroke-width:10;stroke-linecap:butt;stroke-linejoin:miter;stroke:rgb(0%,0%,0%);stroke-opacity:1;stroke-miterlimit:10;" d="M 5.007752 3990.002301 L 235.012234 3990.002301 L 235.012234 3229.997699 L 474.993096 3229.997699 L 474.993096 3990.002301 L 704.997578 3990.002301 L 704.997578 3119.983648 L 615.014535 3010.008721 L 105.006298 3010.008721 L 5.007752 3110.007267 Z M 5.007752 3990.002301 " transform="matrix(0.0998452,0,0,-0.0998452,0,398.941176)"/>
</g>
<g clip-path="url(#clip3)" clip-rule="nonzero">
<path style=" stroke:none;fill-rule:nonzero;fill:rgb(0%,0%,100%);fill-opacity:1;" d="M 85.367188 11.542969 L 96.351562 0.558594 L 141.28125 0.558594 L 153.261719 11.542969 L 153.261719 30.511719 L 130.296875 30.511719 L 130.296875 18.53125 L 108.332031 18.53125 L 108.332031 41.496094 L 141.28125 41.496094 L 153.261719 53.476562 L 153.261719 87.425781 L 141.28125 98.40625 L 96.351562 98.40625 L 85.367188 87.425781 L 85.367188 67.457031 L 108.332031 67.457031 L 108.332031 80.433594 L 130.296875 80.433594 L 130.296875 57.46875 L 96.351562 57.46875 L 85.367188 46.488281 "/>
</g>
<g clip-path="url(#clip4)" clip-rule="nonzero">
<path style="fill:none;stroke-width:10;stroke-linecap:butt;stroke-linejoin:miter;stroke:rgb(0%,0%,0%);stroke-opacity:1;stroke-miterlimit:10;" d="M 854.995397 3879.988251 L 965.009448 3990.002301 L 1415.002907 3990.002301 L 1534.993338 3879.988251 L 1534.993338 3690.006662 L 1304.988857 3690.006662 L 1304.988857 3809.997093 L 1084.999879 3809.997093 L 1084.999879 3579.992611 L 1415.002907 3579.992611 L 1534.993338 3460.00218 L 1534.993338 3119.983648 L 1415.002907 3010.008721 L 965.009448 3010.008721 L 854.995397 3119.983648 L 854.995397 3319.980741 L 1084.999879 3319.980741 L 1084.999879 3190.013929 L 1304.988857 3190.013929 L 1304.988857 3420.018411 L 965.009448 3420.018411 L 854.995397 3529.993338 Z M 854.995397 3879.988251 " transform="matrix(0.0998452,0,0,-0.0998452,0,398.941176)"/>
</g>
<g clip-path="url(#clip5)" clip-rule="nonzero">
<path style=" stroke:none;fill-rule:nonzero;fill:rgb(0%,0%,100%);fill-opacity:1;" d="M 160.25 98.40625 L 197.195312 0.558594 L 214.167969 0.558594 L 182.21875 98.40625 Z M 216.164062 1.558594 L 253.109375 98.40625 L 232.140625 98.40625 L 219.160156 63.460938 L 196.195312 63.460938 L 202.1875 43.492188 L 214.167969 43.492188 L 207.179688 28.515625 "/>
</g>
<g clip-path="url(#clip6)" clip-rule="nonzero">
<path style="fill:none;stroke-width:10;stroke-linecap:butt;stroke-linejoin:miter;stroke:rgb(0%,0%,0%);stroke-opacity:1;stroke-miterlimit:10;" d="M 1604.984496 3010.008721 L 1975.010417 3990.002301 L 2145.000121 3990.002301 L 1825.012597 3010.008721 Z M 2164.992006 3979.986797 L 2535.017926 3010.008721 L 2325.005329 3010.008721 L 2194.999394 3360.003634 L 1964.994913 3360.003634 L 2025.00969 3560.000727 L 2145.000121 3560.000727 L 2075.008963 3709.998547 Z M 2164.992006 3979.986797 " transform="matrix(0.0998452,0,0,-0.0998452,0,398.941176)"/>
</g>
<g clip-path="url(#clip7)" clip-rule="nonzero">
<path style=" stroke:none;fill-rule:nonzero;fill:rgb(0%,0%,100%);fill-opacity:1;" d="M 260.097656 98.40625 L 260.097656 0.558594 L 321.003906 0.558594 L 321.003906 22.523438 L 283.0625 22.523438 L 283.0625 38.5 L 305.027344 38.5 L 305.027344 56.472656 L 283.0625 56.472656 L 283.0625 98.40625 "/>
</g>
<g clip-path="url(#clip8)" clip-rule="nonzero">
<path style="fill:none;stroke-width:10;stroke-linecap:butt;stroke-linejoin:miter;stroke:rgb(0%,0%,0%);stroke-opacity:1;stroke-miterlimit:10;" d="M 2605.009084 3010.008721 L 2605.009084 3990.002301 L 3215.015867 3990.002301 L 3215.015867 3770.013324 L 2835.013566 3770.013324 L 2835.013566 3610 L 3055.002544 3610 L 3055.002544 3429.994792 L 2835.013566 3429.994792 L 2835.013566 3010.008721 Z M 2605.009084 3010.008721 " transform="matrix(0.0998452,0,0,-0.0998452,0,398.941176)"/>
</g>
<path style=" stroke:none;fill-rule:nonzero;fill:rgb(0%,0%,100%);fill-opacity:1;" d="M 0.5 300.09375 L 23.464844 300.09375 L 23.464844 375.976562 L 47.425781 375.976562 L 47.425781 300.09375 L 70.390625 300.09375 L 70.390625 386.960938 L 61.40625 397.941406 L 10.484375 397.941406 L 0.5 387.957031 "/>
<g clip-path="url(#clip9)" clip-rule="nonzero">
<path style="fill:none;stroke-width:10;stroke-linecap:butt;stroke-linejoin:miter;stroke:rgb(0%,0%,0%);stroke-opacity:1;stroke-miterlimit:10;" d="M 5.007752 990.006783 L 235.012234 990.006783 L 235.012234 230.00218 L 474.993096 230.00218 L 474.993096 990.006783 L 704.997578 990.006783 L 704.997578 119.98813 L 615.014535 10.013203 L 105.006298 10.013203 L 5.007752 110.011749 Z M 5.007752 990.006783 " transform="matrix(0.0998452,0,0,-0.0998452,0,398.941176)"/>
</g>
<path style=" stroke:none;fill-rule:nonzero;fill:rgb(0%,0%,100%);fill-opacity:1;" d="M 85.367188 311.078125 L 96.351562 300.09375 L 141.28125 300.09375 L 153.261719 311.078125 L 153.261719 330.046875 L 130.296875 330.046875 L 130.296875 318.066406 L 108.332031 318.066406 L 108.332031 341.03125 L 141.28125 341.03125 L 153.261719 353.011719 L 153.261719 386.960938 L 141.28125 397.941406 L 96.351562 397.941406 L 85.367188 386.960938 L 85.367188 366.992188 L 108.332031 366.992188 L 108.332031 379.96875 L 130.296875 379.96875 L 130.296875 357.007812 L 96.351562 357.007812 L 85.367188 346.023438 "/>
<g clip-path="url(#clip10)" clip-rule="nonzero">
<path style="fill:none;stroke-width:10;stroke-linecap:butt;stroke-linejoin:miter;stroke:rgb(0%,0%,0%);stroke-opacity:1;stroke-miterlimit:10;" d="M 854.995397 879.992733 L 965.009448 990.006783 L 1415.002907 990.006783 L 1534.993338 879.992733 L 1534.993338 690.011143 L 1304.988857 690.011143 L 1304.988857 810.001575 L 1084.999879 810.001575 L 1084.999879 579.997093 L 1415.002907 579.997093 L 1534.993338 460.006662 L 1534.993338 119.98813 L 1415.002907 10.013203 L 965.009448 10.013203 L 854.995397 119.98813 L 854.995397 319.985223 L 1084.999879 319.985223 L 1084.999879 190.018411 L 1304.988857 190.018411 L 1304.988857 419.983769 L 965.009448 419.983769 L 854.995397 529.99782 Z M 854.995397 879.992733 " transform="matrix(0.0998452,0,0,-0.0998452,0,398.941176)"/>
</g>
<path style=" stroke:none;fill-rule:nonzero;fill:rgb(0%,0%,100%);fill-opacity:1;" d="M 253.109375 397.941406 L 216.164062 300.09375 L 199.191406 300.09375 L 231.140625 397.941406 Z M 197.195312 301.09375 L 160.25 397.941406 L 181.21875 397.941406 L 195.199219 362.996094 L 217.164062 362.996094 L 211.171875 343.027344 L 199.191406 343.027344 L 206.179688 328.050781 "/>
<g clip-path="url(#clip11)" clip-rule="nonzero">
<path style="fill:none;stroke-width:10;stroke-linecap:butt;stroke-linejoin:miter;stroke:rgb(0%,0%,0%);stroke-opacity:1;stroke-miterlimit:10;" d="M 2535.017926 10.013203 L 2164.992006 990.006783 L 1995.002301 990.006783 L 2314.989826 10.013203 Z M 1975.010417 979.991279 L 1604.984496 10.013203 L 1814.997093 10.013203 L 1955.018532 360.008115 L 2175.00751 360.008115 L 2114.992733 560.005208 L 1995.002301 560.005208 L 2064.993459 710.003028 Z M 1975.010417 979.991279 " transform="matrix(0.0998452,0,0,-0.0998452,0,398.941176)"/>
</g>
<path style=" stroke:none;fill-rule:nonzero;fill:rgb(0%,0%,100%);fill-opacity:1;" d="M 260.097656 397.941406 L 260.097656 300.09375 L 321.003906 300.09375 L 321.003906 322.058594 L 283.0625 322.058594 L 283.0625 338.035156 L 305.027344 338.035156 L 305.027344 356.007812 L 283.0625 356.007812 L 283.0625 397.941406 "/>
<g clip-path="url(#clip12)" clip-rule="nonzero">
<path style="fill:none;stroke-width:10;stroke-linecap:butt;stroke-linejoin:miter;stroke:rgb(0%,0%,0%);stroke-opacity:1;stroke-miterlimit:10;" d="M 2605.009084 10.013203 L 2605.009084 990.006783 L 3215.015867 990.006783 L 3215.015867 770.017805 L 2835.013566 770.017805 L 2835.013566 610.004482 L 3055.002544 610.004482 L 3055.002544 429.999273 L 2835.013566 429.999273 L 2835.013566 10.013203 Z M 2605.009084 10.013203 " transform="matrix(0.0998452,0,0,-0.0998452,0,398.941176)"/>
</g>
</g>
</svg>
